<svg width="1135" height="625" xmlns="http://www.w3.org/2000/svg" xmlns:xlink="http://www.w3.org/1999/xlink" overflow="hidden"><g transform="translate(-129 -29)"><path d="M474 60.2996C474 43.0133 488.013 29 505.3 29L870.7 29C887.987 29 902 43.0133 902 60.2996L902 621.7C902 638.987 887.987 653 870.7 653L505.3 653C488.013 653 474 638.987 474 621.7Z" fill="#FDEADA" fill-rule="evenodd"/><path d="M917 55.2975C917 40.7738 928.774 29 943.298 29L1056.7 29C1071.23 29 1083 40.7738 1083 55.2975L1083 626.702C1083 641.226 1071.23 653 1056.7 653L943.298 653C928.774 653 917 641.226 917 626.702Z" fill="#DCE6F2" fill-rule="evenodd"/><path d="M943.5 484 963.858 484 963.858 346.5 1038.14 346.5 1038.14 484 1058.5 484 1001 541.5Z" stroke="#376092" stroke-width="2.66667" stroke-miterlimit="8" fill="#8EB4E3" fill-rule="evenodd"/><text font-family="Yu Gothic UI,Yu Gothic UI_MSFontService,sans-serif" font-weight="400" font-size="21" transform="translate(936.114 58)">一般論文申込</text><text font-family="Arial,Arial_MSFontService,sans-serif" font-weight="400" font-size="21" transform="translate(940.201 83)">Poster Track</text><text font-family="Arial,Arial_MSFontService,sans-serif" font-weight="400" font-size="43" transform="translate(984.697 508)">C</text><text font-family="Arial,Arial_MSFontService,sans-serif" font-weight="400" font-size="43" transform="translate(988.281 399)">2</text><path d="M1097 55.4559C1097 40.8447 1108.84 29 1123.46 29L1237.54 29C1252.16 29 1264 40.8447 1264 55.4559L1264 626.544C1264 641.155 1252.16 653 1237.54 653L1123.46 653C1108.84 653 1097 641.155 1097 626.544Z" fill="#EBF1DE" fill-rule="evenodd"/><path d="M1123.5 484 1143.86 484 1143.86 346.5 1218.14 346.5 1218.14 484 1238.5 484 1181 541.5Z" stroke="#77933C" stroke-width="2.66667" stroke-miterlimit="8" fill="#D7E4BD" fill-rule="evenodd"/><text font-family="Arial,Arial_MSFontService,sans-serif" font-weight="400" font-size="43" transform="translate(1165.16 508)">D</text><text font-family="Yu Gothic UI,Yu Gothic UI_MSFontService,sans-serif" font-weight="400" font-size="21" transform="translate(1121.57 58)">デモ発表申込</text><text font-family="Arial,Arial_MSFontService,sans-serif" font-weight="400" font-size="21" transform="translate(1123.08 83)">Demo Track</text><path d="M1119.5 557.667C1119.5 549.291 1126.29 542.5 1134.67 542.5L1228.33 542.5C1236.71 542.5 1243.5 549.291 1243.5 557.667L1243.5 618.333C1243.5 626.71 1236.71 633.5 1228.33 633.5L1134.67 633.5C1126.29 633.5 1119.5 626.71 1119.5 618.333Z" stroke="#77933C" stroke-width="2.66667" stroke-linejoin="round" stroke-miterlimit="10" fill="#D7E4BD" fill-rule="evenodd"/><text font-family="Yu Gothic UI,Yu Gothic UI_MSFontService,sans-serif" font-weight="400" font-size="21" transform="translate(1142.91 583)">デモ発表</text><text font-family="Arial,Arial_MSFontService,sans-serif" font-weight="400" font-size="21" transform="translate(1152.16 608)">Demo</text><text font-family="Arial,Arial_MSFontService,sans-serif" font-weight="400" font-size="43" transform="translate(1168.74 399)">3</text><text font-family="Yu Gothic UI,Yu Gothic UI_MSFontService,sans-serif" font-weight="400" font-size="21" transform="translate(581.19 58)">口頭発表候補論文申込</text><text font-family="Arial,Arial_MSFontService,sans-serif" font-weight="400" font-size="21" transform="translate(575.783 83)">Oral Presentation Track</text><path d="M721.5 557.667C721.5 549.291 728.291 542.5 736.667 542.5L1052.33 542.5C1060.71 542.5 1067.5 549.291 1067.5 557.667L1067.5 618.333C1067.5 626.71 1060.71 633.5 1052.33 633.5L736.667 633.5C728.291 633.5 721.5 626.71 721.5 618.333Z" stroke="#376092" stroke-width="2.66667" stroke-linejoin="round" stroke-miterlimit="10" fill="#8EB4E3" fill-rule="evenodd"/><text font-family="Yu Gothic UI,Yu Gothic UI_MSFontService,sans-serif" font-weight="400" font-size="21" transform="translate(840.681 583)">ポスター発表</text><text font-family="Arial,Arial_MSFontService,sans-serif" font-weight="400" font-size="21" transform="translate(863.094 608)">Poster</text><path d="M488.5 557.667C488.5 549.291 495.29 542.5 503.667 542.5L680.333 542.5C688.71 542.5 695.5 549.291 695.5 557.667L695.5 618.333C695.5 626.71 688.71 633.5 680.333 633.5L503.667 633.5C495.29 633.5 488.5 626.71 488.5 618.333Z" stroke="#E46C0A" stroke-width="2.66667" stroke-linejoin="round" stroke-miterlimit="10" fill="#FCD5B5" fill-rule="evenodd"/><text font-family="Yu Gothic UI,Yu Gothic UI_MSFontService,sans-serif" font-weight="400" font-size="21" transform="translate(548.544 570)">口頭発表</text><text font-family="Arial,Arial_MSFontService,sans-serif" font-weight="400" font-size="21" transform="translate(528.711 595)">+</text><text font-family="Yu Gothic UI,Yu Gothic UI_MSFontService,sans-serif" font-weight="400" font-size="21" transform="translate(547.211 595)">ポスター発表</text><text font-family="Arial,Arial_MSFontService,sans-serif" font-weight="400" font-size="21" transform="translate(528.291 621)">Oral</text><text font-family="Arial,Arial_MSFontService,sans-serif" font-weight="400" font-size="21" transform="translate(574.624 621)">&amp;</text><text font-family="Arial,Arial_MSFontService,sans-serif" font-weight="400" font-size="21" transform="translate(594.791 621)">poster</text><path d="M821.978 401.5 821.978 342.577C821.978 297.53 785.539 261.003 740.606 261.003L723.941 261.003 723.941 94.5001 647.902 94.5001 647.902 261.003 636.38 261.003C591.448 261.003 555.009 297.53 555.009 342.577L555.009 401.5 554.5 401.5 628.918 401.5 628.409 401.5 628.409 342.577C628.409 338.162 631.986 334.58 636.394 334.58L740.606 334.58C745.014 334.58 748.591 338.162 748.591 342.577L748.591 401.5 748.082 401.5 822.5 401.5 821.991 401.5Z" stroke="#E46C0A" stroke-width="2.66667" stroke-miterlimit="8" fill="#FCD5B5" fill-rule="evenodd"/><path d="M534.5 484 554.858 484 554.858 346.5 629.142 346.5 629.142 484 649.5 484 592 541.5Z" stroke="#E46C0A" stroke-width="2.66667" stroke-miterlimit="8" fill="#FCD5B5" fill-rule="evenodd"/><text font-family="Arial,Arial_MSFontService,sans-serif" font-weight="400" font-size="43" transform="translate(576.91 508)">A</text><path d="M727.5 484 747.858 484 747.858 346.5 822.142 346.5 822.142 484 842.5 484 785 541.5Z" stroke="#376092" stroke-width="2.66667" stroke-miterlimit="8" fill="#8EB4E3" fill-rule="evenodd"/><text font-family="Arial,Arial_MSFontService,sans-serif" font-weight="400" font-size="43" transform="translate(770.309 508)">B</text><text font-family="Arial,Arial_MSFontService,sans-serif" font-weight="400" font-size="43" transform="translate(676.026 141)">1</text><rect x="589" y="266" width="198" height="61" fill="#FFFFFF" fill-opacity="0.666667"/><text font-family="Yu Gothic UI,Yu Gothic UI_MSFontService,sans-serif" font-weight="400" font-size="21" transform="translate(599.276 291)">評価委員による評価</text><text font-family="Arial,Arial_MSFontService,sans-serif" font-weight="400" font-size="21" transform="translate(602.61 316)">Paper evaluations</text><text font-family="Yu Gothic UI,Yu Gothic UI_MSFontService,sans-serif" font-weight="400" font-size="21" transform="translate(255.798 210)">原稿投稿締切</text><text font-family="Arial,Arial_MSFontService,sans-serif" font-weight="400" font-size="21" transform="translate(255.798 235)">Paper Deadline</text><path d="M223.5 245.5 873.579 245.5" stroke="#000000" stroke-width="2.66667" stroke-linejoin="round" stroke-miterlimit="10" fill="none" fill-rule="evenodd"/><text font-family="Arial,Arial_MSFontService,sans-serif" font-weight="400" font-size="32" transform="translate(148.582 238)">3/18</text><path d="M223.198 245.445 243.985 209.441" stroke="#000000" stroke-width="2.66667" stroke-linejoin="round" stroke-miterlimit="10" fill="none" fill-rule="evenodd"/><text font-family="Yu Gothic UI,Yu Gothic UI_MSFontService,sans-serif" font-weight="400" font-size="21" transform="translate(255.798 310)">選定結果通知</text><text font-family="Arial,Arial_MSFontService,sans-serif" font-weight="400" font-size="21" transform="translate(255.798 335)">Results Notification</text><text font-family="Arial,Arial_MSFontService,sans-serif" font-weight="400" font-size="32" transform="translate(148.582 338)">5/31</text><path d="M223.198 345.881 243.985 309.876" stroke="#000000" stroke-width="2.66667" stroke-linejoin="round" stroke-miterlimit="10" fill="none" fill-rule="evenodd"/><text font-family="Yu Gothic UI,Yu Gothic UI_MSFontService,sans-serif" font-weight="400" font-size="21" transform="translate(255.798 133)">アブストラクト締切</text><text font-family="Arial,Arial_MSFontService,sans-serif" font-weight="400" font-size="21" transform="translate(255.798 158)">Abstract Deadline</text><text font-family="Arial,Arial_MSFontService,sans-serif" font-weight="400" font-size="32" transform="translate(150.97 161)">3/11</text><path d="M223.198 168.753 243.985 132.748" stroke="#000000" stroke-width="2.66667" stroke-linejoin="round" stroke-miterlimit="10" fill="none" fill-rule="evenodd"/><path d="M223.5 169.5 873.579 169.5" stroke="#000000" stroke-width="2.66667" stroke-linejoin="round" stroke-miterlimit="10" fill="none" fill-rule="evenodd"/><text font-family="Yu Gothic UI,Yu Gothic UI_MSFontService,sans-serif" font-weight="400" font-size="21" transform="translate(255.798 388)">カメラレディ原稿締切</text><text font-family="Arial,Arial_MSFontService,sans-serif" font-weight="400" font-size="21" transform="translate(255.798 413)">Camera Ready Deadline</text><text font-family="Arial,Arial_MSFontService,sans-serif" font-weight="400" font-size="32" transform="translate(148.582 418)">6/24</text><path d="M223.198 424.454 243.985 388.449" stroke="#000000" stroke-width="2.66667" stroke-linejoin="round" stroke-miterlimit="10" fill="none" fill-rule="evenodd"/><path d="M223.5 424.5 1251.53 424.5" stroke="#000000" stroke-width="2.66667" stroke-linejoin="round" stroke-miterlimit="10" fill="none" fill-rule="evenodd"/><path d="M223.5 346.5 873.579 346.5" stroke="#000000" stroke-width="2.66667" stroke-linejoin="round" stroke-miterlimit="10" fill="none" fill-rule="evenodd"/></g></svg>